<svg width="28" height="32" viewBox="0 0 28 32" fill="none" xmlns="http://www.w3.org/2000/svg">
<g filter="url(#filter0_d)">
<path d="M5.96742 7.67099C5.97408 7.53794 6.08389 7.43347 6.21711 7.43347H21.8589C21.9921 7.43347 22.1019 7.53793 22.1086 7.67099L22.844 22.3798C22.8512 22.5226 22.7373 22.6423 22.5944 22.6423H5.48167C5.3387 22.6423 5.22484 22.5226 5.23198 22.3798L5.96742 7.67099Z" stroke="#313133" stroke-width="1.5"/>
<path fill-rule="evenodd" clip-rule="evenodd" d="M17.9399 10.0253C17.9593 9.62919 17.9684 9.21132 17.9684 8.77215C17.9684 6.6169 17.7326 4.96517 17.1366 3.88433C16.8577 3.37857 16.5096 3.01677 16.0658 2.76966C15.6141 2.51813 14.9728 2.33545 14.038 2.33545C13.1032 2.33545 12.4618 2.51813 12.0101 2.76966C11.5664 3.01677 11.2182 3.37857 10.9394 3.88433C10.3434 4.96517 10.1076 6.6169 10.1076 8.77215C10.1076 9.21076 10.1078 9.62776 10.1128 10.0253H8.6126C8.6076 9.61714 8.6076 9.19857 8.6076 8.77215C8.6076 4.38883 9.51267 0.835449 14.038 0.835449C18.5633 0.835449 19.4684 4.38883 19.4684 8.77215C19.4684 9.19857 19.4605 9.61714 19.4419 10.0253H17.9399Z" fill="#313133"/>
</g>
<defs>
<filter id="filter0_d" x="0.481628" y="0.835449" width="27.1127" height="30.5569" filterUnits="userSpaceOnUse" color-interpolation-filters="sRGB">
<feFlood flood-opacity="0" result="BackgroundImageFix"/>
<feColorMatrix in="SourceAlpha" type="matrix" values="0 0 0 0 0 0 0 0 0 0 0 0 0 0 0 0 0 0 127 0"/>
<feOffset dy="4"/>
<feGaussianBlur stdDeviation="2"/>
<feColorMatrix type="matrix" values="0 0 0 0 0 0 0 0 0 0 0 0 0 0 0 0 0 0 0.25 0"/>
<feBlend mode="normal" in2="BackgroundImageFix" result="effect1_dropShadow"/>
<feBlend mode="normal" in="SourceGraphic" in2="effect1_dropShadow" result="shape"/>
</filter>
</defs>
</svg>
